<?xml version="1.0" encoding="utf-8"?>
<!-- Generator: Adobe Illustrator 24.0.2, SVG Export Plug-In . SVG Version: 6.00 Build 0)  -->
<svg version="1.1" id="Шар_1" xmlns="http://www.w3.org/2000/svg" xmlns:xlink="http://www.w3.org/1999/xlink" x="0px" y="0px"
	 viewBox="0 0 50 50" style="enable-background:new 0 0 50 50;" xml:space="preserve">
<style type="text/css">
	.st0{fill:#575969;}
</style>
<path class="st0" d="M11,11C4.9,11,0,15.9,0,22c0,2.3,0.7,4.5,2,6.3V42c0,1.7,1.3,3,3,3h2.1c0.5,2.8,2.9,5,5.9,5s5.4-2.2,5.9-5h9.3
	c0.7,0,1.4-0.3,1.9-0.8c0.5,0.5,1.2,0.8,1.9,0.8h1.1c0.5,2.8,2.9,5,5.9,5c3.3,0,6-2.7,6-6s-2.7-6-6-6c-3,0-5.4,2.2-5.9,5H32
	c-0.2,0-0.5-0.1-0.7-0.3C31.1,42.5,31,42.2,31,42V23c0-0.4,0.6-1,1-1h8c0.8,0,1.9,0.9,2.7,1.8l0.2,0.2H38c-1.6,0-3,1.3-3,3v4
	c0,0.8,0.4,1.6,0.9,2.1S37.2,34,38,34h10v8c0,0.4-0.6,1-1,1h-2v2h2c1.7,0,3-1.3,3-3v-9.6c0-2.3-1.6-4.3-1.6-4.3l0,0l-4.1-5.5l0,0
	C43.3,21.4,41.9,20,40,20h-8c-0.4,0-0.7,0.1-1,0.2v-2.3c0-1.5-1.2-2.9-2.8-2.9h-8.7C17.5,12.6,14.4,11,11,11z M11,13c5,0,9,4,9,9
	s-4,9-9,9s-9-4-9-9S6,13,11,13z M11,14c-0.6,0-1,0.5-1,1v5.8c-0.4,0.3-0.6,0.7-0.6,1.2c0,0.1,0,0.1,0,0.2l-2.1,2.1
	c-0.3,0.3-0.4,0.6-0.3,1c0.1,0.4,0.4,0.6,0.7,0.7c0.3,0.1,0.7,0,1-0.3l2.1-2.1c0.1,0,0.1,0,0.2,0c0.9,0,1.6-0.7,1.6-1.6
	c0-0.5-0.2-0.9-0.6-1.2V15c0-0.3-0.1-0.5-0.3-0.7C11.5,14.1,11.3,14,11,14z M20.8,17h7.4c0.4,0,0.8,0.4,0.8,0.9V23c0,0,0,0,0,0v19
	c0,0,0,0,0,0v0.1c0,0.5-0.4,0.8-0.8,0.8h-9.3c-0.5-2.8-2.9-5-5.9-5s-5.4,2.2-5.9,5H5c-0.4,0-1-0.6-1-1V30.5c1.9,1.6,4.3,2.5,7,2.5
	c6.1,0,11-4.9,11-11C22,20.2,21.6,18.5,20.8,17z M38,26h6.3l2.4,3.2c0,0,0.9,1.6,1.1,2.8H38c-0.2,0-0.4-0.1-0.7-0.3S37,31.2,37,31
	v-4C37,26.5,37.6,26,38,26z M13,40c2.2,0,4,1.8,4,4s-1.8,4-4,4s-4-1.8-4-4S10.8,40,13,40z M39,40c2.2,0,4,1.8,4,4s-1.8,4-4,4
	s-4-1.8-4-4S36.8,40,39,40z"/>
</svg>
