<?xml version="1.0" encoding="utf-8"?>
<!-- Generator: Adobe Illustrator 24.0.2, SVG Export Plug-In . SVG Version: 6.00 Build 0)  -->
<svg version="1.1" id="Шар_1" xmlns="http://www.w3.org/2000/svg" xmlns:xlink="http://www.w3.org/1999/xlink" x="0px" y="0px"
	 viewBox="0 0 50 50" style="enable-background:new 0 0 50 50;" xml:space="preserve">
<style type="text/css">
	.st0{fill:#575969;}
</style>
<path class="st0" d="M7,9c-2.8,0-5,2.3-5,5v22c0,2.8,2.3,5,5,5h36c2.8,0,5-2.3,5-5V14c0-2.8-2.3-5-5-5H7z M7,11h36c1.7,0,3,1.3,3,3
	v2H4v-2C4,12.3,5.3,11,7,11z M4,21h42v15c0,1.7-1.3,3-3,3H7c-1.7,0-3-1.3-3-3V21z M9,24v2h16v-2H9z"/>
</svg>
