<?xml version="1.0" encoding="utf-8"?>
<!-- Generator: Adobe Illustrator 24.0.2, SVG Export Plug-In . SVG Version: 6.00 Build 0)  -->
<svg version="1.1" id="Шар_1" xmlns="http://www.w3.org/2000/svg" xmlns:xlink="http://www.w3.org/1999/xlink" x="0px" y="0px"
	 viewBox="0 0 50 50" style="enable-background:new 0 0 50 50;" xml:space="preserve">
<style type="text/css">
	.st0{fill:#575969;}
</style>
<path class="st0" d="M21.4,1c-1.4,0-2.7,0.7-3.4,2l-0.3,0.4c-0.4,0.6-1,1-1.8,1h0l-0.5,0c-2.2,0-4,1.8-4,4l0,0.5
	c0,0.7-0.4,1.4-1,1.8L10,11c-1.9,1.1-2.5,3.6-1.5,5.5h0L8.8,17c0.4,0.6,0.4,1.4,0,2l-0.2,0.4C7.5,21.4,8.1,23.8,10,25l0.4,0.3
	c0.6,0.4,1,1,1,1.8v0l0,0.5c0,1.8,1.2,3.3,2.8,3.8L9.1,42.6c-0.2,0.5,0,1.1,0.5,1.3C9.7,44,9.9,44,10,44h6.5l3.7,4.6
	c0.3,0.4,1,0.5,1.4,0.2c0.1-0.1,0.2-0.2,0.3-0.4l3.1-7.1l3.1,7.1c0.2,0.5,0.8,0.7,1.3,0.5c0.1-0.1,0.3-0.2,0.4-0.3l3.7-4.6h6.5
	c0.6,0,1-0.4,1-1c0-0.1,0-0.3-0.1-0.4l-5.2-11.3c1.6-0.6,2.7-2,2.8-3.8v0l0-0.5v0c0-0.7,0.4-1.4,1-1.8L40,25
	c1.9-1.1,2.5-3.6,1.5-5.5l0,0L41.2,19c-0.3-0.6-0.3-1.4,0-2l0.2-0.4v0c1.1-1.9,0.4-4.4-1.5-5.5l0,0l-0.4-0.3c-0.6-0.4-1-1-1-1.8v0
	l0-0.5v0c0-2.2-1.8-4-4-4l-0.5,0c-0.7,0-1.4-0.4-1.8-1L32,3c-1.1-1.9-3.6-2.5-5.5-1.5v0L26,1.8c-0.6,0.4-1.4,0.4-2,0l-0.4-0.2
	c-0.5-0.3-1-0.4-1.5-0.5C21.8,1,21.6,1,21.4,1z M21.4,3c0.4,0,0.8,0.1,1.2,0.3L23,3.5c1.2,0.7,2.7,0.7,4,0l0.4-0.2v0
	c1-0.6,2.2-0.2,2.8,0.8l0.3,0.4c0.7,1.2,2,2,3.4,2l0.5,0c1.1,0,2,0.9,2.1,2.1v0l0,0.5c0,1.4,0.8,2.7,2,3.4l0.4,0.3
	c1,0.6,1.3,1.8,0.8,2.8L39.5,16c-0.7,1.2-0.7,2.7,0,4l0,0v0l0.2,0.4c0.6,1,0.2,2.2-0.8,2.8l-0.4,0.3c-1.2,0.7-2,2-2,3.4l0,0.5v0
	c0,1.1-0.9,2-2.1,2.1l-0.5,0c-1.4,0-2.7,0.8-3.4,2v0L30.3,32c-0.6,1-1.8,1.3-2.8,0.8v0L27,32.5c-1.2-0.7-2.7-0.7-4,0l-0.4,0.2v0
	c-1,0.6-2.2,0.2-2.8-0.8l-0.3-0.4c-0.7-1.2-2-2-3.4-2h0l-0.5,0c-1.1,0-2-0.9-2.1-2.1v0l0-0.5c0-1.4-0.8-2.7-2-3.4L11,23.3
	c-1-0.6-1.3-1.8-0.8-2.8l0.2-0.4v0c0.7-1.2,0.7-2.7,0-4l-0.2-0.4h0c-0.6-1-0.2-2.2,0.8-2.8l0.4-0.3c1.2-0.7,2-2,2-3.4v0l0-0.5
	c0-1.1,0.9-2,2.1-2.1h0l0.5,0c1.4,0,2.7-0.8,3.4-2L19.7,4c0.3-0.5,0.8-0.8,1.3-1C21.1,3,21.3,3,21.4,3z M32.3,11.1L24,24l-6.6-6
	l-1.3,1.5l8.4,7.5L34,12.2L32.3,11.1z M33.7,31.6L38.5,42h-5.4c-0.3,0-0.6,0.1-0.8,0.4l-3,3.7l-3.2-7.3l1.7-3.8
	c1.6,0.3,3.3-0.5,4.2-1.9l0.3-0.4C32.6,32,33.1,31.7,33.7,31.6z M16.4,31.6c0.6,0.1,1.1,0.5,1.4,1L18,33c1.1,1.9,3.6,2.5,5.5,1.5v0
	l0.4-0.2c0.6-0.3,1.3-0.3,2,0l-5.2,11.9l-3-3.7C17.6,42.1,17.3,42,17,42h-5.4L16.4,31.6z"/>
</svg>
