<svg xmlns="http://www.w3.org/2000/svg" viewBox="0 0 16 16">
  <path d="M8 1C6.351563 1 5 2.351563 5 4L3 4C2.734375 4 2.515625 4.207031 2.5 4.472656L2 13.472656C1.992188 13.609375 2.042969 13.746094 2.136719 13.84375C2.230469 13.945313 2.363281 14 2.5 14L13.5 14C13.636719 14 13.769531 13.945313 13.863281 13.84375C13.957031 13.746094 14.007813 13.609375 14 13.472656L13.5 4.472656C13.484375 4.207031 13.265625 4 13 4L11 4C11 2.351563 9.648438 1 8 1 Z M 8 2C9.101563 2 10 2.898438 10 4L6 4C6 2.898438 6.898438 2 8 2 Z M 3.472656 5L5 5L5 7L6 7L6 5L10 5L10 7L11 7L11 5L12.527344 5L12.96875 13L3.03125 13Z" fill="#575969" />
</svg>