<?xml version="1.0" encoding="utf-8"?>
<!-- Generator: Adobe Illustrator 24.0.2, SVG Export Plug-In . SVG Version: 6.00 Build 0)  -->
<svg version="1.1" id="Шар_1" xmlns="http://www.w3.org/2000/svg" xmlns:xlink="http://www.w3.org/1999/xlink" x="0px" y="0px"
	 viewBox="0 0 16 16" style="enable-background:new 0 0 16 16;" xml:space="preserve">
<style type="text/css">
	.st0{fill:#575969;}
</style>
<path class="st0" d="M3,1v1H2.5C1.7,2,1,2.7,1,3.5v9C1,13.3,1.7,14,2.5,14h10c0.8,0,1.5-0.7,1.5-1.5v-9C14,2.7,13.3,2,12.5,2H12V1
	h-1v1H4V1H3z M2.5,3H3v1h1V3h7v1h1V3h0.5C12.8,3,13,3.2,13,3.5V5H2V3.5C2,3.2,2.2,3,2.5,3z M2,6h11v6.5c0,0.3-0.2,0.5-0.5,0.5h-10
	C2.2,13,2,12.8,2,12.5V6z M5,7v1h1V7H5z M7,7v1h1V7H7z M9,7v1h1V7H9z M11,7v1h1V7H11z M3,9v1h1V9H3z M5,9v1h1V9H5z M7,9v1h1V9H7z
	 M9,9v1h1V9H9z M11,9v1h1V9H11z M3,11v1h1v-1H3z M5,11v1h1v-1H5z M7,11v1h1v-1H7z"/>
</svg>
