<svg xmlns="http://www.w3.org/2000/svg" viewBox="0 0 16 16">
  <path d="M5 2C2.796781 2 1 3.796781 1 6C1 7.9166667 2.0211511 9.0958719 3.2988281 10.195312C4.5765051 11.294754 6.142386 12.411826 7.59375 14.431641L8 14.996094L8.40625 14.431641C9.857614 12.411826 11.423495 11.294755 12.701172 10.195312C13.978849 9.0958719 15 7.9166667 15 6C15 3.796781 13.203219 2 11 2C9.7357196 2 8.7278378 2.6652432 8 3.4648438C7.2721622 2.6652431 6.2642804 2 5 2 z M 5 3C6.08584 3 7.0506051 3.6556128 7.59375 4.4160156L8 4.984375L8.40625 4.4160156C8.9493949 3.6556128 9.91416 3 11 3C12.662781 3 14 4.337219 14 6C14 7.5833333 13.271151 8.3856911 12.048828 9.4375C10.932211 10.398349 9.4320134 11.570647 8 13.394531C6.5679866 11.570647 5.0677891 10.398349 3.9511719 9.4375C2.7288489 8.3856911 2 7.5833333 2 6C2 4.337219 3.337219 3 5 3 z" fill="#575969" />
</svg>