<?xml version="1.0" encoding="utf-8"?>
<!-- Generator: Adobe Illustrator 24.0.2, SVG Export Plug-In . SVG Version: 6.00 Build 0)  -->
<svg version="1.1" id="Шар_1" xmlns="http://www.w3.org/2000/svg" xmlns:xlink="http://www.w3.org/1999/xlink" x="0px" y="0px"
	 viewBox="0 0 16 16" style="enable-background:new 0 0 16 16;" xml:space="preserve">
<style type="text/css">
	.st0{fill:#575969;}
</style>
<path class="st0" d="M8,1C6.4,1,5,2.4,5,4H3C2.7,4,2.5,4.2,2.5,4.5l-0.5,9c0,0.1,0,0.3,0.1,0.4C2.2,13.9,2.4,14,2.5,14h11
	c0.1,0,0.3-0.1,0.4-0.2c0.1-0.1,0.1-0.2,0.1-0.4l-0.5-9C13.5,4.2,13.3,4,13,4h-2C11,2.4,9.6,1,8,1z M8,2c1.1,0,2,0.9,2,2H6
	C6,2.9,6.9,2,8,2z M3.5,5H5v2h1V5h4v2h1V5h1.5l0.4,8H3L3.5,5z"/>
</svg>
